<svg xmlns="http://www.w3.org/2000/svg" fill="none" viewBox="0 0 100 80" height="80" width="100">
<path fill="#191919" d="M28.4927 32.3335C32.0692 32.3335 35.014 36.8804 35.0142 42.2944C35.0142 45.5975 33.5907 47.6664 31.0337 47.6665C28.8061 47.6665 27.5761 46.4164 25.3696 42.728L24.2378 40.8247C23.9692 40.3725 23.7129 39.9506 23.4702 39.5591C22.7817 40.7753 21.7829 42.538 21.771 42.5591C19.3557 46.7766 17.9969 47.6664 16.1079 47.6665C13.4831 47.6665 11.9155 45.626 11.9155 42.3901C11.9155 37.2191 14.7953 32.3335 18.5532 32.3335C20.3963 32.3336 21.9362 33.2265 23.7778 35.5688C25.118 33.7587 26.5988 32.3336 28.4927 32.3335ZM62.8208 36.2827C63.856 36.2827 64.7477 36.5268 65.4946 37.0161C66.2414 37.5055 66.8161 38.1914 67.2192 39.0728C67.6221 39.9543 67.8236 40.9885 67.8237 42.1753V42.8208H59.8306C59.9765 43.7092 60.3356 44.4085 60.9087 44.9185C61.4818 45.4286 62.2062 45.6841 63.0815 45.6841C63.7832 45.6841 64.3878 45.5798 64.895 45.3716C65.402 45.1634 65.8781 44.8475 66.3228 44.4243L67.5737 45.9546C66.33 47.093 64.8048 47.6617 62.9985 47.6616C61.9077 47.6616 60.9483 47.4204 60.1216 46.938C59.2949 46.4556 58.6509 45.7876 58.189 44.9341C57.7269 44.0804 57.4956 43.102 57.4956 41.9985C57.4956 40.8811 57.7217 39.8915 58.1733 39.0308C58.6249 38.1705 59.2518 37.4972 60.0542 37.0112C60.8566 36.5256 61.7788 36.2829 62.8208 36.2827ZM82.3833 36.2827C83.1266 36.2827 83.7938 36.4264 84.3843 36.7144C84.9669 36.9959 85.4717 37.4163 85.854 37.938V36.5425H88.0845V47.4019H85.854V45.8813C85.458 46.4505 84.9545 46.89 84.3433 47.1987C83.7318 47.5075 83.0364 47.6614 82.2583 47.6616C81.2997 47.6616 80.4503 47.4174 79.7104 46.9282C78.9705 46.4389 78.3882 45.7649 77.9644 44.9077C77.5407 44.0507 77.3286 43.0705 77.3286 41.9673C77.3286 40.8569 77.5444 39.8747 77.9751 39.021C78.4058 38.1674 79.0014 37.4972 79.7622 37.0112C80.523 36.5255 81.3968 36.2829 82.3833 36.2827ZM72.9517 36.5425H76.2446V38.4692H72.9517V43.3521C72.9517 44.1638 73.0908 44.7433 73.3687 45.0903C73.6465 45.4373 74.1224 45.611 74.7964 45.6108C75.0949 45.6108 75.3486 45.599 75.5571 45.5747C75.7655 45.5505 75.9946 45.5168 76.2446 45.4751V47.3804C75.9593 47.4628 75.6685 47.5255 75.3745 47.5679C75.0381 47.6173 74.698 47.6421 74.3579 47.6411C71.9056 47.641 70.6791 46.3013 70.6792 43.6226V38.4692H68.5122V36.5425H70.6792V33.3569H72.9517V36.5425ZM47.6685 41.6968L52.5767 32.8267H55.4009V47.4019H53.0454V36.231L48.7417 43.9663H46.5317L42.228 36.231V47.4019H39.8726V32.8267H42.7593L47.6685 41.6968ZM82.8423 38.3442C81.8695 38.3442 81.0946 38.6704 80.5181 39.3228C79.9413 39.9752 79.6527 40.8568 79.6528 41.9673C79.6529 43.0846 79.9311 43.9693 80.4868 44.6216C81.0426 45.274 81.7966 45.6001 82.7485 45.6001C83.4501 45.6 84.0756 45.42 84.6245 45.0591C85.1732 44.6984 85.5687 44.2119 85.812 43.6011V40.3433C85.5687 39.7256 85.185 39.2378 84.6606 38.8804C84.136 38.523 83.5299 38.3443 82.8423 38.3442ZM18.521 34.8394C16.2875 34.8394 14.4137 38.6782 14.4136 42.4321C14.4136 44.1868 15.0806 45.1713 16.2026 45.1714C17.293 45.1714 17.9709 44.4841 19.9292 41.4175C19.9292 41.4175 20.8194 40.0041 22.2896 37.7515C20.7414 35.5375 19.7305 34.8394 18.521 34.8394ZM28.3345 34.311C27.1371 34.311 26.1301 35.2487 24.9097 37.1304C25.2476 37.6311 25.5998 38.1795 25.9663 38.7749L27.3198 41.0308C29.4378 44.4349 29.971 45.1714 31.0864 45.1714C32.2501 45.1714 32.812 44.1773 32.812 42.4644C32.812 37.9703 30.8219 34.3114 28.3345 34.311ZM62.7798 38.2603C62.0017 38.2603 61.3501 38.5173 60.8257 39.0308C60.301 39.5444 59.9694 40.2355 59.8306 41.103H65.562C65.4925 40.2146 65.2115 39.5183 64.7183 39.0151C64.2249 38.5121 63.5786 38.2604 62.7798 38.2603Z"></path>
</svg>
